<?xml version="1.0" encoding="UTF-8"?>
<svg id="Layer_2" data-name="Layer 2" xmlns="http://www.w3.org/2000/svg" viewBox="0 0 334.64 78.97">
  <defs>
    <style>
      .cls-1 {
        fill: #2281a4;
      }

      .cls-1, .cls-2, .cls-3, .cls-4, .cls-5, .cls-6, .cls-7, .cls-8, .cls-9, .cls-10, .cls-11, .cls-12 {
        stroke-width: 0px;
      }

      .cls-2 {
        fill: #c5e2f2;
      }

      .cls-13 {
        letter-spacing: 0em;
      }

      .cls-3 {
        fill: #2282a4;
      }

      .cls-4 {
        fill: #fee14d;
      }

      .cls-5 {
        fill: #2e313c;
      }

      .cls-6 {
        fill: #fff;
      }

      .cls-14 {
        letter-spacing: 0em;
      }

      .cls-7 {
        fill: #85b2c6;
      }

      .cls-8 {
        fill: #c5e2f1;
      }

      .cls-9 {
        fill: #3d404e;
      }

      .cls-15 {
        fill: #262262;
        font-family: Raleway-ExtraBold, Raleway;
        font-size: 62.29px;
        font-weight: 700;
      }

      .cls-10 {
        fill: #2c93c0;
      }

      .cls-11 {
        fill: #f04e2a;
      }

      .cls-12 {
        fill: #2c92bf;
      }
    </style>
  </defs>
  <g id="Layer_1-2" data-name="Layer 1">
    <g>
      <g>
        <path class="cls-8" d="M0,48.55V5.17C.31,2.82,1.79,1.39,3.82.42,4.66.02,5.57.01,6.46.01,28.4,0,50.33,0,72.27,0c3.12,0,5.46,1.67,6.47,4.53.25.72.29,1.46.29,2.2,0,13.73,0,27.46,0,41.19,0,.28.06.57-.12.82-.23.2-.52.23-.8.23-1.85.02-3.7.02-5.55,0-.26,0-.51-.03-.75-.16-.41-.29-.43-.73-.48-1.17-.26-2.38-.5-4.75-.73-7.13-.06-.64-.33-.83-.92-.82-1.31.02-2.62.01-3.93,0-.38,0-.77.03-1.14-.14-.36-.24-.33-.62-.33-.97-.02-1.11,0-2.21,0-3.32,0-4.48-3.08-8.38-7.4-9.38-4.43-1.03-8.85,1.06-10.87,5.1-.68,1.36-1.05,2.78-1.01,4.31.03,1.08.02,2.16,0,3.24,0,.38.04.79-.36,1.04-.49.2-1.01.14-1.52.13-1.56-.02-3.13.06-4.69-.04q-1.85.17-2.01,2.08c-.17,1.95-.37,3.89-.61,5.83-.14,1.08-.25,1.18-1.3,1.18-11.19,0-22.38,0-33.57,0-.33,0-.68.04-.95-.22Z"/>
        <path class="cls-9" d="M25.57,56.28c-6.13,0-12.27-.04-18.4.02-3.24.04-6.16-1.85-7.03-4.98-.02-.06-.09-.11-.14-.16,0-.82,0-1.65,0-2.47.24-.14.5-.07.76-.07,11.44,0,22.87,0,34.31,0,.5.22.38.67.37,1.05-.03.53-.12,1.06-.14,1.59-.01.39.15.54.53.56.47.03.98-.1,1.39.24.04.09.02.18-.05.25-.34.24-.73.2-1.12.2-1.82,0-3.65.02-5.47,0-.66,0-.99.18-1.04.89-.05.74-.11,1.49-.23,2.22-.05.32-.04.68-.4.87-.91.11-1.81.04-2.72.03-.23,0-.45-.07-.62-.24Z"/>
        <path class="cls-7" d="M35.2,48.71c-.31,0-.62-.02-.92-.02-11.12,0-22.23,0-33.35,0-.31,0-.62.01-.92.02,0-.05,0-.1,0-.15,11.43,0,22.86-.01,34.29,0,.77,0,1.22.02,1.28-1.03.12-2.4.48-4.78.69-7.17.06-.67.25-1,.97-.92.41.05.82.02,1.23.03.29.33.23.71.19,1.1-.24,2.37-.51,4.73-.74,7.1-.04.41-.08.82-.4,1.14-.78.28-1.56.37-2.32-.08Z"/>
        <path class="cls-11" d="M37.49,48.64c.32-3.06.65-6.12.97-9.18,2.09-.03,4.18-.07,6.27.02.35.25.28.64.29.98.02.87-.02,1.74.02,2.61.04.71.33,1.07.84,1.09.54.02.87-.36.91-1.1.05-.89,0-1.79.02-2.69,0-.38-.03-.78.33-1.06.36-.19.75-.17,1.13-.17,4.18,0,8.36,0,12.54,0,.38,0,.77-.02,1.13.15.36.23.35.6.36.96.02.61,0,1.23,0,1.84,0,.31,0,.62.05.92.12.76.49,1.17,1.02,1.14.54-.03.85-.44.87-1.24.03-.84,0-1.69.01-2.54,0-.33-.03-.68.27-.92,1.92,0,3.84,0,5.76-.04.57-.01.52.34.55.69.27,2.67.54,5.34.81,8.01.02.18.08.35.12.52.28.33.31.75.35,1.16.17,1.86.41,3.71.56,5.57.02.3.1.62-.13.88.22,2.3.43,4.6.67,6.9.49,4.73.98,9.45,1.48,14.18,0,.05,0,.1,0,.15q.11,1.46-1.4,1.46c-5.91,0-11.83,0-17.74,0-.31,0-.62-.02-.92-.03-.4-.44-.37-1-.42-1.53-.83-7.89-1.68-15.78-2.52-23.67-.13-1.19-.14-1.2-1.38-1.2-3.96,0-7.91,0-11.87,0-.44,0-.94.12-1.29-.32,0-.04-.01-.07-.02-.11-.34-1.2-.09-2.34.34-3.46Z"/>
        <path class="cls-10" d="M36.4,23.39c-.2,1.7-.39,3.4-.61,5.1-.22,1.72-.46,3.45-.74,5.16-.38,2.33-1.57,3.54-3.89,3.57-3.95.04-7.91.18-11.87-.09-1.88-.36-2.67-1.68-2.93-3.4-.33-2.16-.64-4.32-.86-6.49-.19-1.93.76-3.44,2.33-3.73.85-.16,1.73-.17,2.6.03.27.14.35.42.48.67.48.92,1.18,1.55,2.28,1.54,1.08,0,1.84-.52,2.32-1.48.14-.29.23-.64.59-.77.17-.06.35-.09.53-.09,3.25-.03,6.5,0,9.76-.03Z"/>
        <path class="cls-1" d="M20.51,23.7c-.69,0-1.39-.01-2.08,0-1.46.02-2.7,1.24-2.68,2.71.02,2,.47,3.95.69,5.93.06.56.14,1.11.24,1.67.24,1.35.94,2.36,2.25,2.88.14.05.25.17.38.25-1.34,0-2.67.03-4.01.02-2.18-.03-3.61-1.41-3.88-3.58-.52-4.2-1.11-8.38-1.64-12.58-.06-.45-.25-.6-.64-.68-.82-.17-1.21-.74-1.26-1.54-.04-.69-.04-1.39,0-2.08.05-.85.51-1.33,1.36-1.51,1.85-.12,3.7-.02,5.55-.05.42,0,.43.25.27.5-.61.94-.41,1.99-.4,3,0,.83.34,1.25,1.15,1.41,1.27.27,2.56.13,3.84.1.44,0,.45-.36.45-.67.02-1.11,0-2.21.01-3.32,0-.38-.04-.78.28-1.09.04-.02.08-.03.12-.04.33.26.31.63.31.99.02,2.23.02,4.46,0,6.69,0,.35.01.73-.31.99Z"/>
        <path class="cls-6" d="M64.54,39.46c0,1.21,0,2.41,0,3.62,0,.87-.47,1.42-1.18,1.43-.69.01-1.2-.54-1.24-1.39-.04-1.23-.04-2.46-.06-3.69-.29-.29-.25-.66-.25-1.01,0-1.13,0-2.26,0-3.39-.02-3.68-3.24-6.8-6.92-6.93-3.59-.12-7.43,2.55-7.55,7.58-.02.95,0,1.9,0,2.85,0,.34,0,.67-.22.96,0,1.21.02,2.41,0,3.62-.01.87-.5,1.41-1.2,1.41-.7,0-1.18-.54-1.2-1.41-.02-1.21,0-2.41,0-3.62.01-1.49.04-2.98.03-4.47-.02-4.47,3.65-8.76,8.3-9.49,5.35-.84,10.68,2.78,11.41,8.63.22,1.75.05,3.54.06,5.32Z"/>
        <path class="cls-9" d="M20.51,23.7c0-2.89,0-5.77,0-8.66,0-1.54,0-3.08.02-4.62.01-1.66,1.1-2.85,2.64-2.91,1.48-.06,2.63,1.03,2.81,2.67.1,1.63-.02,3.27.06,4.9.11.21.12.44.12.68-.01,2.29.01,4.57.07,6.86,0,.38.01.78-.26,1.1-.35,1.44-1.27,2.27-2.56,2.32-1.44.05-2.36-.69-2.89-2.32Z"/>
        <path class="cls-10" d="M26.1,15.06c3.54,0,7.07,0,10.61,0,1.13,0,1.77.53,1.96,1.63.12.68.11,1.39.01,2.07-.17,1.13-.69,1.56-1.91,1.72-.3.25-.65.28-1.02.28-2.88,0-5.75.01-8.63,0-1.04,0-1.13-.11-1.11-1.16.03-1.51-.11-3.02.08-4.53Z"/>
        <path class="cls-9" d="M64.49,19.22c-2.65,0-5.3,0-7.94,0-.31,0-.62.01-.91-.13-.5-.24-.73-.64-.69-1.18.03-.51.32-.87.8-1.01.27-.08.56-.1.84-.1,5.27,0,10.54,0,15.81,0,.15,0,.31,0,.46.01.75.09,1.25.59,1.24,1.22-.02.69-.54,1.18-1.35,1.18-2.75.01-5.5,0-8.25,0Z"/>
        <path class="cls-9" d="M64.54,11.17c2.72,0,5.45,0,8.17,0,.64,0,1.1.23,1.31.85.17.5,0,.91-.37,1.25-.35.33-.81.28-1.24.28-4.88,0-9.77,0-14.65,0-.44,0-.87,0-1.31,0-1.01-.02-1.54-.44-1.52-1.22.02-.75.54-1.16,1.5-1.16,2.7,0,5.4,0,8.1,0Z"/>
        <path class="cls-9" d="M72.57,56.25c-.33-2.53-.61-5.06-.78-7.61,2.37.02,4.73.03,7.1.05.08,3.08-1.09,5.45-3.89,6.9-.75.39-1.57.6-2.42.66Z"/>
        <path class="cls-3" d="M26.1,15.06c0,1.51.03,3.03-.02,4.54-.02.66.15.88.85.87,3.28-.03,6.56,0,9.84,0-.12.98-.25,1.95-.37,2.93-.22.34-.56.3-.89.3-3.18,0-6.37,0-9.55,0,0-2.88,0-5.77.01-8.65.03,0,.07,0,.1,0l.02.02Z"/>
        <path class="cls-12" d="M20.38,15.07c0,1.54-.02,3.08,0,4.62.01.55-.12.81-.73.76-1.35-.1-2.72.16-4.06-.16-.86-.21-1.23-.69-1.25-1.59,0-.36,0-.72,0-1.08,0-.83-.18-1.72.78-2.3-.05-.05-.1-.1-.15-.14-1.91,0-3.83,0-5.74,0,.15-.13.33-.13.51-.13,3.55,0,7.09.01,10.64.02Z"/>
        <path class="cls-11" d="M48.21,19.22c-.8,0-1.59.01-2.39,0-.84-.02-1.34-.45-1.36-1.16-.02-.71.44-1.23,1.26-1.25,1.67-.04,3.34-.04,5.01,0,.79.02,1.31.62,1.26,1.27-.05.69-.57,1.12-1.4,1.14-.8.01-1.59,0-2.39,0Z"/>
        <path class="cls-11" d="M48.21,11.18c.85,0,1.7-.02,2.54,0,.74.02,1.26.53,1.25,1.19,0,.63-.49,1.15-1.19,1.16-1.72.03-3.44.03-5.17,0-.76-.01-1.22-.54-1.19-1.22.02-.65.49-1.11,1.21-1.13.85-.02,1.7,0,2.54,0Z"/>
        <path class="cls-10" d="M26.07,15.04s-.07,0-.1,0c0-1.63,0-3.25,0-4.88.2,1.62,0,3.25.1,4.87Z"/>
        <path class="cls-4" d="M37.18,52.21c4.57.01,9.14.04,13.72.01.73,0,.98.14,1.05.93.34,3.7.77,7.4,1.16,11.09.39,3.62.79,7.24,1.18,10.86.14,1.27.25,2.55.37,3.83-1.49,0-2.98.02-4.47.03-7.61,0-15.22,0-22.83.02-.73,0-.82-.19-.73-.87.23-1.78.37-3.57.54-5.36-.27-.35-.14-.74-.1-1.11.31-3.11.66-6.21.99-9.32.18-1.65.35-3.31.54-4.96.04-.32,0-.68.31-.91.14-1.2.32-2.39.42-3.59.04-.5.19-.64.69-.64,2.39.02,4.78,0,7.17-.01Z"/>
        <path class="cls-5" d="M28.9,56.44c-.29,2.86-.57,5.72-.87,8.58-.23,2.19-.47,4.39-.71,6.58-.04.38-.11.76-.17,1.14-4.13,0-8.27-.01-12.4.01-.56,0-.77-.1-.74-.71.06-1.2-.1-2.42.44-3.55,1-2.1,2.73-3.04,5-3.07,1.16-.02,2.31-.02,3.47,0,.37,0,.52-.09.61-.48.66-2.89,1.36-5.78,2.04-8.67.9,0,1.79-.01,2.69-.02.23,0,.47-.02.64.18Z"/>
        <path class="cls-5" d="M37.49,48.64c-.11,1.15-.22,2.3-.34,3.46-.18,0-.36,0-.54,0-1.84,0-1.86,0-1.54-1.79.1-.54.1-1.06.12-1.6.76-.14,1.53-.02,2.29-.07Z"/>
        <path class="cls-2" d="M47.12,39.48c0-2.2-.21-4.39.42-6.56.78-2.67,3.83-4.99,6.6-5.07,2.17-.07,4.07.55,5.62,2.02,1.35,1.28,2.23,2.88,2.29,4.79.05,1.59.01,3.18.02,4.77-4.68,0-9.35,0-14.03,0-.31,0-.61.03-.92.05Z"/>
        <path class="cls-9" d="M34.23,60.04c0-.93-.01-1.85,0-2.78.02-.84.45-1.32,1.16-1.34.75-.01,1.2.48,1.21,1.37.01,1.62-.02,3.24.01,4.86.03,1.9,1.1,3.38,2.78,3.94,1.6.53,3.35-.02,4.4-1.39.56-.74.82-1.59.82-2.52,0-1.59,0-3.19,0-4.78,0-.95.44-1.47,1.2-1.47.76,0,1.23.51,1.22,1.46-.01,1.87.08,3.75-.08,5.62-.29,3.32-3.46,5.91-6.78,5.66-3.22-.24-5.93-2.96-5.94-6.32,0-.77,0-1.54,0-2.31h0Z"/>
      </g>
      <text class="cls-15" transform="translate(91.04 59.17)"><tspan x="0" y="0">STIS </tspan><tspan class="cls-13" x="148.49" y="0">C</tspan><tspan class="cls-14" x="191.09" y="0">o</tspan><tspan x="228.71" y="0">.</tspan></text>
    </g>
  </g>
</svg>